# xmcd
#
# Track frame offsets: 
#        150
#        23043
#        45410
#        94503
#        160891
#        188633
#        236688
#        267522
#
# Disc length: 3903 seconds
#
# Revision: 0
# Processed by: cddbd v1.5.2PL0 Copyright (c) Steve Scherf et al.
# Submitted via: ExactAudioCopy v0.90b4
#
DISCID=5b0f3d08
DTITLE=Johnny Winter - The Woodstock Experience [Limited Edition] (Dis
DTITLE=c 2)
DYEAR=2009
DGENRE=Blues
TTITLE0=Mama, Talk To Your Daughter
TTITLE1=Leland Mississippi Blues
TTITLE2=Mean Town Blues
TTITLE3=You Done Lost Your Good Thing Now
TTITLE4=I Can't Stand It (With Edgar Winter)
TTITLE5=Tobacco Road (With Edgar Winter)
TTITLE6=Tell The Truth (With Edgar Winter)
TTITLE7=Johnny B. Goode
EXTD=
EXTT0=
EXTT1=
EXTT2=
EXTT3=
EXTT4=
EXTT5=
EXTT6=
EXTT7=
PLAYORDER=
